<?xml version="1.0" encoding="utf-8"?>
<!-- Generator: Adobe Illustrator 16.0.0, SVG Export Plug-In . SVG Version: 6.00 Build 0)  -->
<!DOCTYPE svg PUBLIC "-//W3C//DTD SVG 1.1//EN" "http://www.w3.org/Graphics/SVG/1.1/DTD/svg11.dtd">
<svg version="1.1" id="Layer_1" xmlns="http://www.w3.org/2000/svg" xmlns:xlink="http://www.w3.org/1999/xlink" x="0px" y="0px"
	 width="236.16px" height="162.72px" viewBox="0 0 236.16 162.72" enable-background="new 0 0 236.16 162.72" xml:space="preserve">
<g>
	<g>
		<polygon fill="#603913" points="3.45,114.27 12.32,114.27 12.32,117.07 6.42,117.07 6.42,123.18 11.56,123.18 11.56,125.98 
			6.42,125.98 6.42,132.08 12.32,132.08 12.32,135.06 3.45,135.06 		"/>
		<path fill="#603913" d="M19.51,114.27h4.79c3.51,0,5.26,2.03,5.26,6.1c0,1.21-0.19,2.24-0.57,3.11c-0.38,0.87-1.04,1.56-2,2.09
			l3.21,9.49h-3.15l-2.77-8.88h-1.78v8.88h-2.98V114.27z M22.48,123.56h1.69c0.53,0,0.94-0.07,1.26-0.22
			c0.31-0.14,0.55-0.36,0.71-0.63c0.16-0.27,0.28-0.61,0.34-1.01c0.06-0.4,0.09-0.86,0.09-1.39c0-0.52-0.03-0.99-0.09-1.39
			c-0.06-0.4-0.18-0.74-0.37-1.02c-0.18-0.28-0.44-0.49-0.77-0.63c-0.33-0.14-0.77-0.21-1.31-0.21h-1.55V123.56z"/>
		<rect x="37.28" y="114.27" fill="#603913" width="2.98" height="20.79"/>
		<polygon fill="#603913" points="48.41,114.27 57.29,114.27 57.29,117.07 51.39,117.07 51.39,123.18 56.52,123.18 56.52,125.98 
			51.39,125.98 51.39,132.08 57.29,132.08 57.29,135.06 48.41,135.06 		"/>
		<path fill="#603913" d="M75.16,114.27h4.35c0.95,0,1.76,0.14,2.44,0.44c0.67,0.3,1.22,0.68,1.65,1.17
			c0.43,0.49,0.73,1.05,0.92,1.68c0.18,0.63,0.28,1.29,0.28,1.97v0.75c0,0.57-0.04,1.04-0.13,1.44c-0.09,0.39-0.22,0.73-0.39,1.02
			c-0.17,0.29-0.39,0.55-0.64,0.78c-0.25,0.22-0.55,0.43-0.88,0.62c0.7,0.33,1.21,0.82,1.55,1.48c0.33,0.65,0.5,1.52,0.5,2.61v1.17
			c0,1.83-0.45,3.23-1.33,4.2c-0.88,0.98-2.3,1.46-4.25,1.46h-4.06V114.27z M78.13,122.8h1.34c0.99,0,1.66-0.25,2-0.75
			c0.34-0.5,0.51-1.22,0.51-2.17c0-0.94-0.19-1.64-0.57-2.1c-0.38-0.47-1.06-0.7-2.06-0.7h-1.23V122.8z M78.13,132.08h1.29
			c0.6,0,1.07-0.09,1.42-0.26c0.34-0.17,0.6-0.42,0.77-0.73c0.18-0.31,0.28-0.68,0.32-1.11c0.04-0.43,0.05-0.9,0.05-1.4
			c0-0.52-0.03-0.98-0.09-1.37c-0.06-0.39-0.18-0.72-0.36-0.98c-0.19-0.27-0.45-0.46-0.77-0.6c-0.33-0.14-0.77-0.21-1.32-0.21h-1.31
			V132.08z"/>
		<path fill="#603913" d="M92.67,119.18c0-0.84,0.15-1.58,0.44-2.22c0.3-0.64,0.68-1.17,1.16-1.59c0.47-0.42,1.01-0.74,1.6-0.95
			c0.59-0.21,1.2-0.32,1.79-0.32c0.6,0,1.2,0.11,1.8,0.32c0.59,0.22,1.13,0.53,1.61,0.95c0.48,0.42,0.86,0.95,1.15,1.59
			c0.3,0.64,0.44,1.38,0.44,2.22v10.98c0,0.85-0.15,1.6-0.44,2.23c-0.29,0.63-0.67,1.16-1.15,1.58c-0.48,0.42-1.01,0.74-1.61,0.95
			c-0.59,0.22-1.19,0.32-1.8,0.32c-0.6,0-1.2-0.11-1.79-0.32c-0.6-0.21-1.13-0.53-1.6-0.95c-0.48-0.42-0.86-0.94-1.16-1.58
			c-0.29-0.63-0.44-1.38-0.44-2.23V119.18z M95.65,130.16c0,0.72,0.2,1.25,0.6,1.59c0.4,0.34,0.87,0.51,1.42,0.51
			c0.54,0,1.02-0.17,1.41-0.51c0.4-0.34,0.6-0.87,0.6-1.59v-10.98c0-0.72-0.2-1.25-0.6-1.59c-0.4-0.34-0.87-0.52-1.41-0.52
			c-0.54,0-1.02,0.17-1.42,0.52c-0.4,0.34-0.6,0.87-0.6,1.59V130.16z"/>
		<polygon fill="#603913" points="110.42,114.27 113.29,114.27 117.78,126.8 117.84,126.8 117.84,114.27 120.82,114.27 
			120.82,135.06 118.02,135.06 113.46,122.57 113.4,122.57 113.4,135.06 110.42,135.06 		"/>
		<polygon fill="#603913" points="128.76,114.27 137.63,114.27 137.63,117.07 131.74,117.07 131.74,123.18 136.88,123.18 
			136.88,125.98 131.74,125.98 131.74,132.08 137.63,132.08 137.63,135.06 128.76,135.06 		"/>
		<path fill="#603913" d="M155.5,114.27h4.35c0.95,0,1.77,0.14,2.44,0.44c0.67,0.3,1.22,0.68,1.65,1.17
			c0.43,0.49,0.74,1.05,0.92,1.68c0.19,0.63,0.28,1.29,0.28,1.97v0.75c0,0.57-0.04,1.04-0.13,1.44c-0.09,0.39-0.22,0.73-0.4,1.02
			c-0.18,0.29-0.39,0.55-0.64,0.78c-0.25,0.22-0.55,0.43-0.88,0.62c0.7,0.33,1.22,0.82,1.55,1.48c0.33,0.65,0.5,1.52,0.5,2.61v1.17
			c0,1.83-0.44,3.23-1.33,4.2c-0.89,0.98-2.3,1.46-4.25,1.46h-4.06V114.27z M158.48,122.8h1.34c0.99,0,1.66-0.25,2-0.75
			c0.34-0.5,0.51-1.22,0.51-2.17c0-0.94-0.19-1.64-0.57-2.1c-0.38-0.47-1.07-0.7-2.06-0.7h-1.22V122.8z M158.48,132.08h1.28
			c0.61,0,1.08-0.09,1.42-0.26c0.34-0.17,0.6-0.42,0.78-0.73c0.17-0.31,0.28-0.68,0.32-1.11c0.04-0.43,0.06-0.9,0.06-1.4
			c0-0.52-0.03-0.98-0.09-1.37c-0.06-0.39-0.18-0.72-0.37-0.98c-0.19-0.27-0.44-0.46-0.77-0.6c-0.33-0.14-0.77-0.21-1.32-0.21h-1.31
			V132.08z"/>
		<path fill="#603913" d="M173.2,114.27h4.79c3.5,0,5.26,2.03,5.26,6.1c0,1.21-0.19,2.24-0.57,3.11c-0.38,0.87-1.04,1.56-2,2.09
			l3.21,9.49h-3.15l-2.77-8.88h-1.78v8.88h-2.98V114.27z M176.18,123.56h1.69c0.53,0,0.94-0.07,1.25-0.22
			c0.31-0.14,0.55-0.36,0.72-0.63c0.16-0.27,0.27-0.61,0.33-1.01s0.09-0.86,0.09-1.39c0-0.52-0.03-0.99-0.09-1.39
			c-0.06-0.4-0.18-0.74-0.36-1.02c-0.19-0.28-0.44-0.49-0.77-0.63c-0.33-0.14-0.77-0.21-1.31-0.21h-1.55V123.56z"/>
		<path fill="#603913" d="M190.72,119.18c0-0.84,0.15-1.58,0.44-2.22c0.29-0.64,0.68-1.17,1.16-1.59c0.48-0.42,1.01-0.74,1.6-0.95
			c0.59-0.21,1.19-0.32,1.8-0.32c0.61,0,1.2,0.11,1.79,0.32c0.6,0.22,1.13,0.53,1.61,0.95c0.47,0.42,0.86,0.95,1.15,1.59
			c0.29,0.64,0.44,1.38,0.44,2.22v10.98c0,0.85-0.15,1.6-0.44,2.23c-0.29,0.63-0.68,1.16-1.15,1.58c-0.48,0.42-1.01,0.74-1.61,0.95
			c-0.59,0.22-1.19,0.32-1.79,0.32c-0.6,0-1.2-0.11-1.8-0.32c-0.59-0.21-1.13-0.53-1.6-0.95c-0.48-0.42-0.86-0.94-1.16-1.58
			c-0.29-0.63-0.44-1.38-0.44-2.23V119.18z M193.69,130.16c0,0.72,0.2,1.25,0.6,1.59c0.4,0.34,0.87,0.51,1.42,0.51
			c0.54,0,1.02-0.17,1.42-0.51c0.4-0.34,0.6-0.87,0.6-1.59v-10.98c0-0.72-0.2-1.25-0.6-1.59c-0.4-0.34-0.87-0.52-1.42-0.52
			c-0.54,0-1.02,0.17-1.42,0.52c-0.4,0.34-0.6,0.87-0.6,1.59V130.16z"/>
		<polygon fill="#603913" points="210.19,117.08 206.75,117.08 206.75,114.27 216.61,114.27 216.61,117.08 213.17,117.08 
			213.17,135.06 210.19,135.06 		"/>
		<polygon fill="#603913" points="223.18,114.27 226.16,114.27 226.16,123.18 229.84,123.18 229.84,114.27 232.82,114.27 
			232.82,135.06 229.84,135.06 229.84,125.81 226.16,125.81 226.16,135.06 223.18,135.06 		"/>
	</g>
	<g>
		<path fill-rule="evenodd" clip-rule="evenodd" fill="#603913" d="M164.47,96.15c3.52-0.51,5.12-3.93,4.51-6.92
			c-0.98-4.78-6.54-5.51-10.41-3.93c7.53-5.34,15.11-14.89,24.34-16.65c1.95-0.37,3.88-0.4,5.55,0.06c2.89,0.79,5.57,3.77,5.39,7.36
			c-3.05-1.12-6.53-2.08-9.92-2.15c-2.44-0.05-4.84,0.44-6.49,1.74c-4.74,3.71-1.47,11.14,4.31,12.56
			c-5.01-0.49-8.76-4.74-7.86-10.03c-1.94,3.84-0.21,7.9,2.97,10.19c7.48,5.37,18.55,0.46,22.21-7.25c4.98,3.09,10.18,6.2,15.7,7.42
			c7.33,1.63,16.44-0.42,19.52-8c2.33-5.95-0.69-12.02-6.27-13.85c3.12,1.88,5.21,5.25,5.21,9.11c0,4.92-3.4,9.07-8.02,10.3
			c3.83-1.62,6.51-5.36,6.51-9.72c0-2.48-0.87-4.76-2.33-6.57c-5.55-6.87-15.92-3.03-14.15,5.5c2.36-3.17,6.16-3.09,8.15-1.13
			c1.84,1.81,1.69,5.23-1.08,7.44c-1.71,1.36-4.03,1.73-6.24,1.76c-4.9,0.07-10.41-2.37-16.01-4.78c0.98-3.5,0.38-7.36-2.43-10.85
			c3.92,3.57,13.36,1.36,10.45-6.23c-4.13,5.86-10.33,1.98-15.62,0.86c-9.54-2.02-15.79,2.27-22.35,8.08
			c-6.12,5.44-14.29,13.98-21.37,18.04c-4.45,2.55-9.37,4.34-14.15,5.33c6.24,0.83,16.57-3.81,23.68-4.27
			c1.61-0.1,3.39,0.02,4.72,0.69C165.28,91.43,165.55,94.07,164.47,96.15 M71.79,96.15c-5.09-0.98-6.39-8.29-1.66-10.74
			c2.2-1.14,5.22-1.07,7.56-0.12c-7.53-5.34-15.1-14.89-24.34-16.65c-1.95-0.37-3.87-0.4-5.55,0.06c-2.89,0.79-5.57,3.77-5.39,7.36
			c3.04-1.12,6.53-2.08,9.93-2.15c2.44-0.05,4.83,0.44,6.49,1.74c4.74,3.71,1.47,11.14-4.31,12.56c5.01-0.49,8.75-4.74,7.86-10.03
			c1.94,3.84,0.21,7.9-2.97,10.19c-7.47,5.37-18.55,0.46-22.2-7.25c-4.98,3.09-10.18,6.2-15.7,7.42c-7.33,1.63-16.43-0.42-19.52-8
			c-2.33-5.95,0.69-12.02,6.27-13.85c-3.12,1.88-5.2,5.25-5.2,9.11c0,4.92,3.4,9.07,8.02,10.3c-3.83-1.62-6.52-5.36-6.52-9.72
			c0-2.48,0.87-4.76,2.33-6.57c5.55-6.87,15.93-3.03,14.15,5.5c-2.37-3.17-6.17-3.09-8.16-1.13c-1.84,1.81-1.68,5.23,1.08,7.44
			c1.71,1.36,4.04,1.73,6.24,1.76c4.9,0.07,10.41-2.37,16.01-4.78c-0.98-3.5-0.38-7.36,2.43-10.85c-3.93,3.57-13.36,1.36-10.45-6.23
			c3.27,4.65,7.84,3.17,12.22,1.8c3.82-1.19,7.07-1.71,10.41-1.14c4.06,0.69,7.81,2.94,10.98,5.51c2.11,1.71,4.14,3.69,6.3,5.71
			c-2.51-3.38-4.65-8.44-4.59-12.95c0.07-5.9,4.11-10.21,10.3-9.34c-5.21,2.45-6.45,9.66-5.05,14.04c-0.37-4.92,1.87-12.23,7.71-13
			c-2.9,2.09-4.38,5.67-4.83,9.52c-0.83,7.21,1.61,13.81,6.33,19.2c5.95,6.77,15.05,11.19,23.68,12.98
			c-6.23,0.83-16.56-3.81-23.68-4.27c-2.32-0.14-5.49,0.11-6.5,2.6C70.98,93.4,71.13,94.88,71.79,96.15 M42.59,78.21
			c2.98-1.27,9.25-2.36,12.22-0.26c2.91,2.06,1.92,7.02-2.16,7.49c-1.75,0.21-3.78-0.34-5.31-1.33
			C45.16,82.71,43.29,80.47,42.59,78.21 M193.67,78.21c-2.98-1.27-9.25-2.36-12.21-0.26c-2.92,2.06-1.92,7.02,2.16,7.49
			c1.75,0.21,3.78-0.34,5.31-1.33C191.1,82.71,192.97,80.47,193.67,78.21"/>
		<path fill="#603913" d="M123.64,58.5c-16.63-5.7-20.77-8.94-20.77-8.94c-3.01-3.62-26.62-31.22-54.78-39.1
			c-13.62-3.81-10.91,3.15-4.16,5.97c6.75,2.82,26.34,9.09,35.89,15.84c8.2,5.8,16.95,13.59,23.51,21.73
			c6.55,8.14,9.78,14.18,18.11,17.06c10.11,3.49,18.53-0.14,23.54-6.96C144.97,64.1,140.27,64.2,123.64,58.5"/>
		<path fill="#577E35" d="M179.85,17.98c-7.11,2.54-12.66,7.64-16.19,13.98c3.61-2.92,8.22-5.99,13.41-8.79
			c3.15-1.71,6.23-3.17,9.11-4.34c-3.81,3.35-9.11,6.99-15.2,10.29c-2.5,1.35-4.95,2.54-7.28,3.57c3.67,0.18,7.42-0.33,11.09-1.62
			c7.35-2.65,13.1-8,16.6-14.69C187.58,16.12,183.67,16.61,179.85,17.98"/>
		<path fill="#577E35" d="M162.92,9.68c-3.31,2.81-4.8,7.3-4.67,12.45c1.11-2.63,2.76-5.5,4.85-8.25c1.27-1.67,2.58-3.15,3.86-4.4
			c-1.08,2.98-2.93,6.36-5.37,9.59c-1,1.33-2.04,2.52-3.06,3.59c2.23-0.35,4.28-1.21,5.99-2.65c3.42-2.92,4.94-7.62,4.66-13.03
			C166.83,7.3,164.69,8.18,162.92,9.68"/>
		<path fill="#603913" d="M179.75,37.3l-13.98,4.18c-5.34,24.34-27.9,40.71-52.09,37.04c-6.74-1.02-12.9-3.5-18.29-7.08
			c6.69,4.79,14.51,8.11,23.1,9.42C146.95,85.17,173.47,65.92,179.75,37.3"/>
		<path fill="#577E35" d="M80.02,36.26c-2.15-0.97-4.25-2.1-6.3-3.39c2.55,27.14,24.56,48.37,51.37,48.37c1.45,0,2.88-0.07,4.3-0.2
			C104.99,79.06,85.09,60.54,80.02,36.26"/>
		<path fill="#603913" d="M140.26,20.45L140.26,20.45c9.26-1.32,18.11,4.91,19.82,14.72c0.55,3.16,0.37,6.27-0.51,9.13
			c0.19-1.47,0.16-3-0.12-4.53c-0.95-5.04-5.75-9.75-9.53-11.94c-1.21-0.8-5.52-4.06-10.56-3.04c-5.26,1.06-6.73,13.07-7.75,7.62
			c-1.02-5.46,2.41-10.74,7.66-11.8C139.6,20.53,139.93,20.48,140.26,20.45"/>
		<path fill="#603913" d="M146.64,9.46c0.17-2.95,2.62-5.2,5.46-5.01c2.84,0.18,5.04,2.72,4.83,5.67
			c-0.29,3.97-4.63,6.81-3.05,10.17C153.88,20.28,146.25,15.96,146.64,9.46"/>
		<path fill-rule="evenodd" clip-rule="evenodd" fill="#603913" d="M149.92,27.83c-1.78-1.29-3.87-2.38-6.05-2.31
			c-3.54,0.12-5.7,2.78-5.31,5.32c0.44,2.76,3.44,5.09,7.23,3.96c-3.67,7.91-14.28,4.8-14.64-4.02c-0.09-2.32,0.57-4.67,2.05-6.67
			c2.6-3.49,6.98-4.89,11.03-3.91c-4.44-1.77-9.64-0.47-12.58,3.48c-2.3,3.1-2.64,7.05-1.26,10.41c-3.38-4.8-2.2-11.46,3.23-14.85
			c7-4.24,15.53-0.45,20.44,5.23"/>
	</g>
	<g>
		<path fill="#577E35" d="M37.49,147.56h5.09c2.02,0,2.69,1.24,2.69,2.57c0,1.26-0.8,2.55-2.66,2.55h-3.38v3.15h-1.74V147.56z
			 M39.23,151.38h2.79c0.98,0,1.52-0.26,1.52-1.25c0-1.02-0.72-1.27-1.39-1.27h-2.92V151.38z"/>
		<path fill="#577E35" d="M50.2,147.56h5.24c2.11,0,2.79,0.96,2.79,2.24c0,1.08-0.59,1.75-1.37,2v0.02c0.98,0.21,1.2,1.06,1.2,2.24
			c0,0.39,0.01,1.32,0.35,1.77h-1.88c-0.12-0.23-0.21-0.65-0.21-1.25c0-1.18-0.16-2.02-1.43-2.02h-2.95v3.27H50.2V147.56z
			 M54.94,151.26c0.96,0,1.48-0.29,1.48-1.21c0-0.86-0.57-1.2-1.48-1.2h-3v2.41H54.94z"/>
		<polygon fill="#577E35" points="63.33,147.56 70.51,147.56 70.51,148.85 65.07,148.85 65.07,150.94 70.29,150.94 70.29,152.23 
			65.07,152.23 65.07,154.53 70.6,154.53 70.6,155.83 63.33,155.83 		"/>
		<polygon fill="#577E35" points="75.61,147.56 78.11,147.56 81.01,153.97 83.88,147.56 86.35,147.56 86.35,155.83 84.72,155.83 
			84.79,148.99 84.77,148.99 81.71,155.83 80.23,155.83 77.19,148.99 77.17,148.99 77.24,155.83 75.61,155.83 		"/>
		<rect x="91.74" y="147.56" fill="#577E35" width="1.74" height="8.27"/>
		<path fill="#577E35" d="M98.8,147.56h1.74v4.66c0,1.15,0.04,2.54,2.3,2.54c2.27,0,2.32-1.39,2.32-2.54v-4.66h1.74v4.71
			c0,1.37-0.05,3.79-4.05,3.79c-3.99,0-4.04-2.42-4.04-3.79V147.56z"/>
		<polygon fill="#577E35" points="112.21,147.56 114.71,147.56 117.6,153.97 120.47,147.56 122.95,147.56 122.95,155.83 
			121.32,155.83 121.39,148.99 121.37,148.99 118.31,155.83 116.83,155.83 113.79,148.99 113.77,148.99 113.84,155.83 
			112.21,155.83 		"/>
		<path fill="#577E35" d="M137.87,147.56h5.47c1.89,0,2.37,1,2.37,2.06c0,1.18-0.68,1.52-1.12,1.73c0.63,0.2,1.5,0.66,1.5,2.05
			c0,0.92-0.58,2.43-2.81,2.43h-5.41V147.56z M139.6,150.91h3.24c0.49,0,1.12-0.12,1.12-1.05c0-0.68-0.42-1.01-1.43-1.01h-2.94
			V150.91z M139.6,154.53h3.12c0.77,0,1.56-0.15,1.56-1.22c0-0.76-0.53-1.17-1.31-1.17h-3.37V154.53z"/>
		<path fill="#577E35" d="M151.21,147.56h5.23c2.11,0,2.79,0.96,2.79,2.24c0,1.08-0.59,1.75-1.37,2v0.02
			c0.98,0.21,1.21,1.06,1.21,2.24c0,0.39,0.01,1.32,0.35,1.77h-1.88c-0.12-0.23-0.21-0.65-0.21-1.25c0-1.18-0.16-2.02-1.43-2.02
			h-2.95v3.27h-1.74V147.56z M155.95,151.26c0.96,0,1.48-0.29,1.48-1.21c0-0.86-0.57-1.2-1.48-1.2h-3v2.41H155.95z"/>
		<path fill="#577E35" d="M163.88,151.69c0-2.33,1.37-4.37,4.86-4.37s4.86,2.04,4.86,4.37s-1.36,4.37-4.86,4.37
			S163.88,154.02,163.88,151.69 M171.8,151.69c0-1.82-1.11-3.07-3.05-3.07c-1.95,0-3.06,1.25-3.06,3.07c0,1.82,1.11,3.07,3.06,3.07
			C170.69,154.76,171.8,153.51,171.8,151.69"/>
		<polygon fill="#577E35" points="180.78,148.85 177.68,148.85 177.68,147.56 185.62,147.56 185.62,148.85 182.52,148.85 
			182.52,155.83 180.78,155.83 		"/>
		<polygon fill="#577E35" points="190.17,147.56 191.9,147.56 191.9,150.78 197.03,150.78 197.03,147.56 198.77,147.56 
			198.77,155.83 197.03,155.83 197.03,152.07 191.9,152.07 191.9,155.83 190.17,155.83 		"/>
	</g>
</g>
</svg>
